<svg id="svg" version="1.1" xmlns="http://www.w3.org/2000/svg" xmlns:xlink="http://www.w3.org/1999/xlink" width="400" height="353.5135135135135" viewBox="0, 0, 400,353.5135135135135"><g id="svgg"><path id="path0" d="M187.798 0.884 C 187.798 1.434,187.598 1.768,187.268 1.768 C 186.914 1.768,186.737 2.122,186.737 2.829 C 186.737 3.500,186.556 3.890,186.245 3.890 C 185.975 3.890,185.655 4.281,185.535 4.760 C 185.415 5.238,184.909 6.068,184.411 6.606 C 183.913 7.143,183.417 8.025,183.309 8.566 C 183.201 9.107,182.989 9.549,182.837 9.549 C 182.686 9.549,182.396 10.027,182.193 10.610 C 181.989 11.194,181.655 11.671,181.451 11.671 C 181.246 11.671,181.079 11.910,181.079 12.202 C 181.079 12.493,180.840 12.732,180.548 12.732 C 180.190 12.732,180.018 13.090,180.018 13.831 C 180.018 14.585,179.874 14.875,179.559 14.754 C 179.254 14.637,179.073 14.945,179.017 15.681 C 178.971 16.288,178.700 16.915,178.414 17.075 C 178.129 17.234,177.889 17.715,177.881 18.143 C 177.872 18.571,177.395 19.312,176.820 19.789 C 176.216 20.289,175.774 21.000,175.774 21.469 C 175.774 21.955,175.561 22.281,175.243 22.281 C 174.915 22.281,174.713 22.614,174.713 23.153 C 174.713 23.645,174.250 24.498,173.652 25.111 C 173.068 25.707,172.591 26.492,172.591 26.853 C 172.591 27.215,172.352 27.602,172.060 27.714 C 171.752 27.832,171.530 28.362,171.530 28.979 C 171.530 29.777,171.398 29.989,170.999 29.836 C 170.588 29.678,170.469 29.920,170.469 30.908 C 170.469 31.610,170.349 32.144,170.203 32.095 C 169.672 31.918,168.347 33.622,168.347 34.483 C 168.347 34.975,168.162 35.328,167.930 35.279 C 167.701 35.230,167.345 35.668,167.139 36.251 C 166.933 36.835,166.560 37.441,166.310 37.599 C 166.060 37.757,165.948 38.035,166.061 38.218 C 166.174 38.401,166.014 38.550,165.706 38.550 C 165.368 38.550,165.063 38.967,164.935 39.603 C 164.819 40.182,164.522 40.825,164.273 41.031 C 164.025 41.237,163.904 41.718,164.003 42.100 C 164.126 42.567,164.008 42.794,163.641 42.794 C 163.324 42.794,163.000 43.240,162.862 43.867 C 162.732 44.457,162.163 45.283,161.596 45.702 C 161.029 46.121,160.566 46.763,160.566 47.130 C 160.566 47.496,160.327 48.035,160.035 48.326 C 159.744 48.618,159.505 49.164,159.505 49.539 C 159.505 49.921,159.262 50.221,158.953 50.221 C 158.650 50.221,158.497 50.375,158.614 50.563 C 158.730 50.751,158.500 51.108,158.104 51.356 C 157.661 51.632,157.383 52.183,157.383 52.782 C 157.383 53.414,157.196 53.758,156.852 53.758 C 156.499 53.758,156.322 54.111,156.322 54.819 C 156.322 55.526,156.145 55.880,155.791 55.880 C 155.452 55.880,155.255 56.230,155.246 56.852 C 155.236 57.487,154.867 58.127,154.185 58.693 C 153.608 59.171,153.139 59.908,153.139 60.335 C 153.139 60.761,152.900 61.201,152.608 61.313 C 152.317 61.425,152.078 61.919,152.078 62.412 C 152.078 62.938,151.876 63.307,151.589 63.307 C 151.319 63.307,151.012 63.641,150.905 64.050 C 150.798 64.459,150.541 64.688,150.333 64.559 C 150.101 64.416,149.956 64.694,149.956 65.281 C 149.956 65.806,149.681 66.436,149.346 66.681 C 149.010 66.927,148.731 67.459,148.727 67.865 C 148.722 68.271,148.577 68.591,148.404 68.577 C 147.965 68.541,147.495 69.361,147.471 70.203 C 147.459 70.592,146.979 71.301,146.404 71.778 C 145.801 72.279,145.358 72.990,145.358 73.458 C 145.358 73.912,145.143 74.271,144.872 74.271 C 144.590 74.271,144.385 74.639,144.385 75.148 C 144.385 75.688,143.960 76.398,143.280 76.995 C 142.650 77.548,142.175 78.311,142.175 78.770 C 142.175 79.213,142.020 79.576,141.832 79.576 C 141.643 79.576,141.347 80.093,141.175 80.725 C 141.003 81.357,140.714 81.846,140.533 81.811 C 140.352 81.776,140.170 82.148,140.129 82.638 C 140.037 83.759,139.745 84.243,139.321 83.981 C 139.140 83.869,138.992 84.031,138.992 84.340 C 138.992 84.650,138.753 84.994,138.462 85.106 C 138.170 85.218,137.931 85.696,137.931 86.167 C 137.931 86.639,137.692 87.116,137.401 87.228 C 137.093 87.346,136.870 87.875,136.870 88.485 C 136.870 89.165,136.715 89.486,136.432 89.391 C 135.920 89.221,134.748 90.587,134.748 91.353 C 134.748 91.642,134.509 91.970,134.218 92.082 C 133.926 92.194,133.687 92.556,133.687 92.888 C 133.687 93.219,133.461 93.741,133.184 94.048 C 132.908 94.355,132.629 94.826,132.565 95.094 C 132.501 95.362,132.011 96.074,131.477 96.676 C 130.942 97.278,130.504 98.036,130.504 98.361 C 130.504 98.686,130.265 99.043,129.973 99.155 C 129.682 99.267,129.443 99.598,129.443 99.890 C 129.443 100.182,129.127 100.984,128.740 101.672 C 128.354 102.360,127.996 103.041,127.944 103.186 C 127.893 103.330,127.732 103.408,127.586 103.360 C 127.440 103.311,127.321 103.501,127.321 103.782 C 127.321 104.063,126.991 104.523,126.589 104.805 C 126.055 105.179,125.983 105.369,126.324 105.505 C 126.704 105.657,126.705 105.696,126.327 105.719 C 126.073 105.735,125.964 105.907,126.085 106.103 C 126.206 106.299,126.057 106.555,125.754 106.671 C 125.451 106.787,125.291 107.025,125.399 107.199 C 125.506 107.373,125.426 107.515,125.220 107.515 C 125.014 107.515,124.845 107.735,124.845 108.003 C 124.845 108.271,124.608 108.687,124.319 108.927 C 124.029 109.167,123.870 109.491,123.966 109.646 C 124.248 110.102,123.749 111.052,123.227 111.052 C 122.944 111.052,122.829 111.271,122.949 111.583 C 123.080 111.923,122.942 112.113,122.563 112.113 C 122.239 112.113,122.073 112.272,122.193 112.467 C 122.313 112.661,122.243 112.821,122.037 112.821 C 121.831 112.821,121.662 113.122,121.662 113.490 C 121.662 113.858,121.424 114.251,121.132 114.363 C 120.840 114.475,120.601 114.970,120.601 115.462 C 120.601 116.022,120.403 116.357,120.071 116.357 C 119.779 116.357,119.540 116.601,119.540 116.899 C 119.540 117.197,119.302 117.532,119.010 117.644 C 118.715 117.757,118.479 118.283,118.479 118.827 C 118.479 119.366,118.240 120.005,117.949 120.248 C 117.657 120.490,117.418 120.987,117.418 121.352 C 117.418 121.717,117.219 121.976,116.976 121.927 C 116.711 121.874,116.489 122.302,116.423 122.995 C 116.359 123.656,116.160 124.058,115.957 123.932 C 115.762 123.812,115.518 124.036,115.414 124.432 C 115.311 124.827,115.003 125.236,114.731 125.340 C 114.457 125.445,114.235 126.009,114.235 126.603 C 114.235 127.320,114.060 127.675,113.705 127.675 C 113.407 127.675,113.174 127.990,113.174 128.393 C 113.174 128.788,112.935 129.203,112.644 129.315 C 112.348 129.429,112.113 129.954,112.113 130.504 C 112.113 131.054,111.879 131.579,111.583 131.693 C 111.291 131.805,111.052 132.299,111.052 132.792 C 111.052 133.339,110.852 133.687,110.538 133.687 C 110.230 133.687,109.930 134.183,109.792 134.922 C 109.664 135.601,109.418 136.069,109.245 135.962 C 109.072 135.855,108.930 136.015,108.930 136.319 C 108.930 136.622,108.708 136.870,108.437 136.870 C 107.893 136.870,107.515 137.614,107.515 138.688 C 107.515 139.073,107.356 139.289,107.162 139.169 C 106.967 139.049,106.791 139.159,106.771 139.413 C 106.750 139.668,106.710 140.153,106.682 140.491 C 106.654 140.828,106.518 141.067,106.381 141.021 C 106.038 140.906,104.332 143.259,104.332 143.846 C 104.332 144.106,104.094 144.411,103.802 144.523 C 103.506 144.636,103.271 145.162,103.271 145.712 C 103.271 146.261,103.037 146.787,102.741 146.901 C 102.449 147.013,102.210 147.428,102.210 147.823 C 102.210 148.568,101.060 149.956,100.442 149.956 C 100.248 149.956,100.088 150.433,100.088 151.017 C 100.088 151.703,99.909 152.078,99.580 152.078 C 99.266 152.078,99.030 152.515,98.961 153.227 C 98.895 153.915,98.673 154.341,98.408 154.288 C 98.165 154.240,97.966 154.419,97.966 154.687 C 97.966 154.955,97.728 155.372,97.436 155.615 C 97.144 155.857,96.905 156.428,96.905 156.885 C 96.905 157.477,96.754 157.656,96.375 157.511 C 95.963 157.353,95.844 157.597,95.844 158.604 C 95.844 159.332,95.697 159.809,95.508 159.693 C 95.324 159.578,95.000 159.808,94.789 160.202 C 94.578 160.597,94.199 160.920,93.948 160.920 C 93.640 160.920,93.543 161.270,93.649 161.995 C 93.762 162.765,93.673 163.041,93.334 162.967 C 93.040 162.904,92.789 163.306,92.673 164.028 C 92.569 164.668,92.325 165.179,92.131 165.163 C 91.936 165.148,91.723 165.500,91.658 165.945 C 91.518 166.894,90.269 168.347,89.594 168.347 C 89.336 168.347,89.144 168.466,89.167 168.612 C 89.317 169.563,89.048 170.469,88.617 170.469 C 88.302 170.469,88.066 170.906,87.998 171.618 C 87.928 172.345,87.715 172.732,87.418 172.670 C 87.161 172.617,87.038 172.715,87.145 172.888 C 87.252 173.062,87.025 173.488,86.641 173.836 C 86.256 174.184,85.942 174.694,85.942 174.970 C 85.942 175.245,85.703 175.709,85.411 176.001 C 85.119 176.293,84.881 176.918,84.881 177.390 C 84.881 177.918,84.676 178.249,84.350 178.249 C 83.994 178.249,83.820 178.605,83.820 179.331 C 83.820 180.008,83.678 180.326,83.442 180.180 C 83.234 180.051,82.977 180.280,82.870 180.689 C 82.764 181.098,82.456 181.432,82.187 181.432 C 81.907 181.432,81.698 181.793,81.698 182.273 C 81.698 182.736,81.459 183.312,81.167 183.554 C 80.875 183.797,80.637 184.293,80.637 184.659 C 80.637 185.361,79.466 186.737,78.868 186.737 C 78.674 186.737,78.515 187.198,78.515 187.761 C 78.515 188.344,78.286 188.871,77.984 188.987 C 77.692 189.099,77.454 189.577,77.454 190.048 C 77.454 190.520,77.215 190.997,76.923 191.109 C 76.631 191.221,76.393 191.671,76.393 192.108 C 76.393 192.854,74.884 194.518,74.209 194.518 C 74.041 194.518,74.000 194.901,74.117 195.369 C 74.280 196.017,74.164 196.273,73.630 196.442 C 73.137 196.599,72.984 196.877,73.115 197.379 C 73.298 198.078,71.958 199.752,71.369 199.561 C 71.224 199.514,70.966 199.992,70.794 200.622 C 70.623 201.253,70.282 201.723,70.037 201.667 C 69.726 201.595,69.635 201.933,69.736 202.794 C 69.848 203.752,69.740 204.060,69.246 204.189 C 68.842 204.294,68.612 204.688,68.612 205.272 C 68.612 205.879,68.419 206.189,68.044 206.189 C 67.684 206.189,67.550 206.384,67.679 206.720 C 67.804 207.045,67.678 207.250,67.354 207.250 C 67.050 207.250,66.736 207.701,66.614 208.311 C 66.497 208.895,66.183 209.372,65.915 209.372 C 65.634 209.372,65.429 209.740,65.429 210.244 C 65.429 210.736,64.966 211.589,64.368 212.202 C 63.784 212.799,63.307 213.583,63.307 213.944 C 63.307 214.306,63.068 214.693,62.776 214.805 C 62.472 214.922,62.246 215.450,62.246 216.043 C 62.246 216.612,62.019 217.164,61.743 217.270 C 61.466 217.377,61.184 217.831,61.115 218.281 C 61.047 218.730,60.796 219.058,60.557 219.010 C 60.319 218.961,60.143 219.041,60.166 219.187 C 60.281 219.916,60.072 220.336,59.593 220.336 C 59.240 220.336,59.063 220.690,59.063 221.397 C 59.063 222.104,58.886 222.458,58.532 222.458 C 58.202 222.458,58.002 222.792,58.002 223.342 C 58.002 224.221,56.909 225.641,56.233 225.641 C 56.039 225.641,55.880 226.118,55.880 226.702 C 55.880 227.409,55.703 227.763,55.349 227.763 C 54.998 227.763,54.819 228.114,54.819 228.800 C 54.819 229.520,54.606 229.905,54.124 230.058 C 53.567 230.235,53.472 230.488,53.641 231.335 C 53.757 231.917,53.712 232.366,53.540 232.335 C 52.920 232.220,52.230 232.365,52.431 232.567 C 52.545 232.681,52.318 233.093,51.927 233.484 C 51.492 233.919,51.289 234.470,51.402 234.904 C 51.542 235.440,51.443 235.576,50.993 235.458 C 50.571 235.348,50.383 235.540,50.348 236.118 C 50.320 236.566,50.042 237.188,49.729 237.501 C 49.416 237.814,49.160 238.227,49.160 238.419 C 49.160 238.611,49.009 238.675,48.824 238.561 C 48.640 238.447,48.385 238.904,48.259 239.577 C 48.133 240.249,47.806 240.885,47.534 240.990 C 47.261 241.095,47.038 241.515,47.038 241.924 C 47.038 242.333,46.799 242.906,46.508 243.198 C 46.216 243.490,45.977 244.036,45.977 244.411 C 45.977 244.793,45.734 245.093,45.426 245.093 C 45.122 245.093,44.968 245.244,45.082 245.429 C 45.196 245.614,44.967 245.937,44.572 246.149 C 44.150 246.375,43.855 246.890,43.855 247.404 C 43.855 247.884,43.651 248.276,43.402 248.276 C 43.152 248.276,42.913 248.702,42.870 249.222 C 42.782 250.279,41.874 251.459,41.148 251.459 C 40.854 251.459,40.672 251.869,40.672 252.531 C 40.672 253.158,40.452 253.688,40.141 253.807 C 39.839 253.923,39.611 254.450,39.611 255.033 C 39.611 255.707,39.430 256.057,39.080 256.057 C 38.750 256.057,38.550 256.391,38.550 256.941 C 38.550 257.922,37.306 259.387,36.760 259.049 C 36.568 258.931,36.433 258.965,36.461 259.125 C 36.651 260.216,36.362 261.362,35.897 261.362 C 35.364 261.362,35.232 261.722,35.348 262.865 C 35.383 263.205,35.202 263.485,34.947 263.486 C 34.456 263.489,32.891 265.560,32.891 266.209 C 32.891 266.419,32.653 266.683,32.361 266.795 C 32.069 266.907,31.830 267.382,31.830 267.850 C 31.830 268.319,31.592 268.900,31.300 269.142 C 31.008 269.385,30.769 269.934,30.769 270.364 C 30.769 270.835,30.418 271.333,29.885 271.618 C 29.399 271.878,28.984 272.263,28.963 272.474 C 28.943 272.684,28.903 273.132,28.875 273.470 C 28.847 273.808,28.683 274.073,28.510 274.059 C 28.071 274.023,27.601 274.843,27.577 275.685 C 27.565 276.074,27.086 276.783,26.510 277.260 C 25.934 277.738,25.464 278.475,25.464 278.902 C 25.464 279.328,25.225 279.768,24.934 279.880 C 24.642 279.992,24.403 280.487,24.403 280.979 C 24.403 281.472,24.247 281.874,24.056 281.874 C 23.865 281.874,23.600 282.310,23.466 282.843 C 23.333 283.375,22.773 284.206,22.222 284.690 C 21.665 285.178,21.220 285.931,21.220 286.385 C 21.220 286.834,20.981 287.293,20.690 287.405 C 20.398 287.517,20.159 287.973,20.159 288.417 C 20.159 288.862,19.920 289.317,19.629 289.429 C 19.337 289.541,19.098 289.877,19.098 290.175 C 19.098 290.472,18.859 290.716,18.568 290.716 C 18.214 290.716,18.037 291.070,18.037 291.777 C 18.037 292.437,17.870 292.805,17.595 292.750 C 17.333 292.697,17.109 293.114,17.045 293.775 C 16.972 294.525,16.712 294.947,16.248 295.068 C 15.776 295.192,15.630 295.435,15.785 295.839 C 15.939 296.240,15.630 296.779,14.829 297.511 C 14.178 298.106,13.595 298.922,13.533 299.325 C 13.472 299.728,13.238 300.171,13.015 300.309 C 12.791 300.448,12.556 300.932,12.494 301.386 C 12.431 301.839,11.902 302.620,11.318 303.120 C 10.734 303.621,10.256 304.357,10.256 304.757 C 10.256 305.157,10.018 305.682,9.726 305.924 C 9.434 306.166,9.195 306.668,9.195 307.039 C 9.195 307.411,8.957 307.806,8.665 307.918 C 8.373 308.030,8.134 308.476,8.134 308.910 C 8.134 309.343,7.657 310.123,7.073 310.643 C 6.431 311.215,6.012 311.936,6.012 312.470 C 6.012 312.966,5.828 313.312,5.590 313.263 C 5.358 313.214,5.079 313.572,4.971 314.058 C 4.707 315.245,3.824 316.534,3.275 316.534 C 3.019 316.534,2.829 316.970,2.829 317.557 C 2.829 318.140,2.601 318.668,2.299 318.784 C 2.007 318.896,1.768 319.373,1.768 319.845 C 1.768 320.317,1.530 320.794,1.238 320.906 C 0.888 321.040,0.707 321.594,0.707 322.535 C 0.707 323.319,0.548 323.961,0.354 323.961 C 0.131 323.961,0.000 326.319,0.000 330.327 C 0.000 334.089,0.137 336.693,0.334 336.693 C 0.518 336.693,0.717 337.449,0.776 338.373 C 0.848 339.485,1.034 340.023,1.326 339.965 C 1.602 339.909,1.768 340.279,1.768 340.948 C 1.768 341.575,1.989 342.105,2.299 342.224 C 2.601 342.340,2.829 342.868,2.829 343.451 C 2.829 344.013,2.949 344.434,3.095 344.385 C 3.440 344.271,4.951 345.782,4.951 346.242 C 4.951 346.437,5.071 346.559,5.217 346.514 C 5.624 346.388,7.073 347.756,7.073 348.266 C 7.073 348.515,7.312 348.718,7.604 348.718 C 7.896 348.718,8.134 348.957,8.134 349.248 C 8.134 349.540,8.356 349.779,8.627 349.779 C 8.898 349.779,9.211 350.018,9.323 350.309 C 9.442 350.620,9.972 350.840,10.599 350.840 C 11.316 350.840,11.671 351.016,11.671 351.370 C 11.671 351.728,12.029 351.901,12.770 351.901 C 13.601 351.901,13.819 352.030,13.665 352.431 C 13.501 352.859,13.802 352.962,15.219 352.962 C 16.185 352.962,16.976 353.121,16.976 353.316 C 16.976 353.539,19.511 353.669,23.873 353.669 C 28.235 353.669,30.769 353.539,30.769 353.316 C 30.769 353.121,31.485 352.962,32.361 352.962 C 33.540 352.962,33.952 352.824,33.952 352.431 C 33.952 352.114,34.278 351.901,34.765 351.901 C 35.233 351.901,35.944 351.458,36.445 350.855 C 36.922 350.280,37.630 349.800,38.019 349.789 C 38.675 349.770,40.113 349.089,39.523 349.077 C 39.017 349.067,40.674 347.657,41.191 347.657 C 41.493 347.657,41.631 347.448,41.519 347.158 C 41.404 346.858,41.622 346.567,42.066 346.426 C 42.472 346.297,42.713 346.044,42.601 345.863 C 42.490 345.683,42.739 345.535,43.155 345.535 C 43.811 345.535,43.880 345.395,43.678 344.474 C 43.536 343.829,43.588 343.413,43.811 343.413 C 44.422 343.413,45.977 341.655,45.977 340.964 C 45.977 340.608,46.216 340.118,46.508 339.876 C 46.799 339.634,47.038 339.132,47.038 338.761 C 47.038 338.389,47.277 337.994,47.569 337.882 C 47.860 337.770,48.099 337.440,48.099 337.148 C 48.099 336.822,48.303 336.696,48.630 336.821 C 49.036 336.977,49.160 336.747,49.160 335.836 C 49.160 335.105,49.365 334.568,49.691 334.443 C 49.982 334.331,50.221 333.854,50.221 333.382 C 50.221 332.911,50.460 332.433,50.752 332.321 C 51.043 332.209,51.289 331.755,51.297 331.311 C 51.305 330.861,51.775 330.120,52.358 329.636 C 52.934 329.158,53.404 328.421,53.404 327.994 C 53.404 327.568,53.631 327.133,53.909 327.026 C 54.187 326.919,54.465 326.385,54.528 325.839 C 54.593 325.276,54.834 324.884,55.084 324.934 C 55.327 324.982,55.526 324.800,55.526 324.529 C 55.526 324.258,55.765 323.945,56.057 323.833 C 56.348 323.721,56.587 323.222,56.587 322.723 C 56.587 322.225,56.826 321.725,57.118 321.613 C 57.409 321.501,57.648 321.046,57.648 320.601 C 57.648 320.157,57.887 319.701,58.179 319.589 C 58.482 319.473,58.709 318.945,58.709 318.355 C 58.709 317.605,58.912 317.271,59.452 317.130 C 59.861 317.023,60.090 316.766,59.962 316.558 C 59.833 316.350,59.976 316.180,60.280 316.180 C 60.646 316.180,60.831 315.853,60.831 315.204 C 60.831 314.612,61.109 314.055,61.538 313.787 C 61.927 313.544,62.246 313.045,62.246 312.679 C 62.246 312.312,62.495 311.917,62.799 311.800 C 63.103 311.683,63.260 311.439,63.147 311.257 C 63.035 311.075,63.263 310.824,63.655 310.700 C 64.100 310.559,64.368 310.165,64.368 309.651 C 64.368 309.199,64.607 308.737,64.898 308.625 C 65.190 308.513,65.429 308.014,65.429 307.515 C 65.429 307.017,65.668 306.517,65.959 306.406 C 66.251 306.294,66.495 305.861,66.502 305.444 C 66.515 304.605,67.623 303.095,68.226 303.095 C 68.438 303.095,68.612 302.634,68.612 302.071 C 68.612 301.488,68.840 300.961,69.142 300.845 C 69.434 300.733,69.673 300.238,69.673 299.746 C 69.673 299.186,69.872 298.851,70.203 298.851 C 70.495 298.851,70.734 298.629,70.734 298.358 C 70.734 298.087,70.973 297.774,71.264 297.662 C 71.556 297.550,71.795 297.072,71.795 296.601 C 71.795 296.129,72.034 295.652,72.325 295.540 C 72.617 295.428,72.856 294.933,72.856 294.441 C 72.856 293.881,73.055 293.546,73.386 293.546 C 73.726 293.546,73.922 293.195,73.932 292.573 C 73.942 291.939,74.311 291.299,74.993 290.733 C 75.604 290.226,76.039 289.523,76.039 289.042 C 76.039 288.589,76.278 288.127,76.569 288.015 C 76.861 287.903,77.100 287.458,77.100 287.026 C 77.100 286.567,77.595 285.829,78.292 285.247 C 79.066 284.603,79.426 284.033,79.320 283.625 C 79.217 283.234,79.435 282.846,79.896 282.600 C 80.340 282.362,80.637 281.854,80.637 281.331 C 80.637 280.852,80.793 280.460,80.984 280.460 C 81.174 280.460,81.434 280.046,81.562 279.539 C 81.689 279.033,82.249 278.152,82.806 277.582 C 83.364 277.012,83.820 276.232,83.820 275.850 C 83.820 275.468,83.976 275.155,84.167 275.155 C 84.357 275.155,84.620 274.731,84.750 274.213 C 85.019 273.140,85.918 271.972,86.474 271.972 C 86.680 271.972,86.884 271.546,86.927 271.026 C 86.970 270.505,87.243 269.816,87.534 269.495 C 87.825 269.173,88.064 268.661,88.064 268.357 C 88.064 268.052,88.302 267.712,88.594 267.600 C 88.886 267.488,89.125 266.988,89.125 266.490 C 89.125 265.991,89.363 265.492,89.655 265.380 C 89.947 265.268,90.186 264.972,90.186 264.721 C 90.186 264.471,90.424 264.175,90.716 264.063 C 91.008 263.951,91.247 263.474,91.247 263.002 C 91.247 262.530,91.485 262.053,91.777 261.941 C 92.069 261.829,92.314 261.374,92.323 260.931 C 92.331 260.481,92.801 259.740,93.384 259.256 C 93.960 258.778,94.430 258.041,94.430 257.614 C 94.430 257.188,94.668 256.748,94.960 256.636 C 95.252 256.524,95.491 256.030,95.491 255.537 C 95.491 254.977,95.689 254.642,96.021 254.642 C 96.372 254.642,96.552 254.291,96.552 253.605 C 96.552 252.876,96.763 252.500,97.264 252.341 C 97.656 252.217,97.885 251.968,97.774 251.787 C 97.662 251.607,97.819 251.459,98.122 251.459 C 98.503 251.459,98.674 251.120,98.674 250.365 C 98.674 249.612,98.871 249.219,99.306 249.105 C 99.679 249.008,99.969 248.563,100.014 248.020 C 100.056 247.514,100.567 246.674,101.150 246.153 C 101.733 245.633,102.210 244.863,102.210 244.442 C 102.210 243.999,102.433 243.678,102.741 243.678 C 103.090 243.678,103.271 243.329,103.271 242.655 C 103.271 242.072,103.500 241.544,103.802 241.428 C 104.094 241.316,104.332 240.822,104.332 240.329 C 104.332 239.754,104.530 239.434,104.884 239.434 C 105.187 239.434,105.342 239.283,105.228 239.098 C 105.113 238.913,105.343 238.590,105.737 238.378 C 106.132 238.167,106.454 237.670,106.454 237.274 C 106.454 236.878,106.693 236.316,106.985 236.024 C 107.277 235.732,107.515 235.200,107.515 234.843 C 107.515 234.485,107.993 233.790,108.576 233.299 C 109.160 232.808,109.637 232.073,109.637 231.665 C 109.637 231.257,109.876 230.832,110.168 230.720 C 110.460 230.608,110.698 230.209,110.698 229.832 C 110.698 229.139,111.081 228.540,112.202 227.483 C 112.542 227.161,112.821 226.635,112.821 226.313 C 112.821 225.991,113.059 225.530,113.351 225.287 C 113.643 225.045,113.882 224.486,113.882 224.044 C 113.882 223.602,114.120 223.149,114.412 223.037 C 114.704 222.925,114.943 222.471,114.944 222.027 C 114.944 221.525,115.344 220.953,116.004 220.513 C 116.733 220.025,117.063 219.515,117.064 218.871 C 117.064 218.357,117.303 217.844,117.595 217.732 C 117.887 217.620,118.126 217.126,118.126 216.634 C 118.126 216.074,118.324 215.738,118.656 215.738 C 118.948 215.738,119.187 215.500,119.187 215.208 C 119.187 214.916,119.349 214.677,119.548 214.677 C 119.747 214.677,120.101 214.240,120.336 213.705 C 120.571 213.170,120.965 212.605,121.213 212.449 C 121.460 212.294,121.662 211.794,121.662 211.338 C 121.662 210.882,121.901 210.417,122.193 210.305 C 122.485 210.193,122.723 209.692,122.723 209.192 C 122.723 208.691,123.042 207.940,123.431 207.522 C 123.820 207.105,124.140 206.913,124.143 207.095 C 124.155 207.807,124.835 206.319,124.840 205.570 C 124.843 205.101,125.063 204.775,125.376 204.775 C 125.706 204.775,125.906 204.441,125.906 203.890 C 125.906 203.012,126.999 201.592,127.675 201.592 C 127.869 201.592,128.028 201.131,128.028 200.568 C 128.028 199.985,128.256 199.458,128.559 199.342 C 128.851 199.230,129.089 198.752,129.089 198.281 C 129.089 197.809,129.328 197.332,129.620 197.220 C 129.912 197.108,130.150 196.637,130.150 196.174 C 130.150 195.654,130.557 195.020,131.211 194.518 C 131.968 193.938,132.272 193.405,132.272 192.659 C 132.272 191.875,132.405 191.664,132.803 191.817 C 133.202 191.970,133.333 191.757,133.333 190.959 C 133.333 190.342,133.555 189.813,133.864 189.695 C 134.156 189.583,134.394 189.269,134.394 188.998 C 134.394 188.727,134.633 188.506,134.925 188.506 C 135.279 188.506,135.455 188.152,135.455 187.445 C 135.455 186.737,135.632 186.384,135.986 186.384 C 136.505 186.384,136.667 185.982,136.534 185.019 C 136.498 184.755,136.797 184.309,137.199 184.027 C 137.602 183.745,137.931 183.290,137.931 183.016 C 137.931 182.742,138.408 182.029,138.992 181.432 C 139.576 180.835,140.053 180.051,140.053 179.690 C 140.053 179.328,140.292 178.941,140.584 178.829 C 140.875 178.717,141.114 178.236,141.114 177.761 C 141.114 177.236,141.529 176.548,142.175 176.005 C 142.759 175.514,143.236 174.778,143.236 174.371 C 143.236 173.963,143.475 173.538,143.767 173.426 C 144.069 173.310,144.297 172.782,144.297 172.199 C 144.297 171.569,144.467 171.210,144.739 171.264 C 145.004 171.317,145.226 170.891,145.292 170.203 C 145.361 169.491,145.596 169.054,145.911 169.054 C 146.190 169.054,146.419 168.832,146.419 168.561 C 146.419 168.290,146.658 167.977,146.950 167.865 C 147.241 167.753,147.480 167.276,147.480 166.804 C 147.480 166.332,147.719 165.855,148.011 165.743 C 148.302 165.631,148.541 165.137,148.541 164.644 C 148.541 164.084,148.740 163.749,149.072 163.749 C 149.363 163.749,149.602 163.510,149.602 163.218 C 149.602 162.927,149.841 162.688,150.133 162.688 C 150.482 162.688,150.663 162.338,150.663 161.665 C 150.663 161.081,150.891 160.554,151.194 160.438 C 151.485 160.326,151.724 159.839,151.724 159.357 C 151.724 158.874,151.948 158.352,152.221 158.196 C 152.494 158.041,152.776 157.515,152.848 157.029 C 152.920 156.543,153.174 156.185,153.412 156.233 C 153.651 156.282,153.846 156.083,153.846 155.791 C 153.846 155.500,154.009 155.261,154.207 155.261 C 154.406 155.261,154.762 154.823,154.999 154.288 C 155.235 153.753,155.656 153.140,155.933 152.925 C 156.210 152.710,156.341 152.284,156.224 151.979 C 156.091 151.632,156.466 150.942,157.227 150.134 C 157.896 149.425,158.444 148.554,158.444 148.200 C 158.444 147.846,158.683 147.464,158.974 147.352 C 159.266 147.240,159.505 146.763,159.505 146.291 C 159.505 145.820,159.744 145.342,160.035 145.230 C 160.327 145.118,160.566 144.774,160.566 144.464 C 160.566 144.155,160.725 144.000,160.920 144.120 C 161.225 144.309,161.439 143.604,161.319 142.805 C 161.298 142.664,161.597 142.380,161.984 142.173 C 162.394 141.954,162.688 141.433,162.688 140.925 C 162.688 140.445,162.892 140.053,163.141 140.053 C 163.391 140.053,163.630 139.621,163.674 139.093 C 163.718 138.565,163.991 138.000,164.282 137.838 C 164.572 137.675,164.810 137.232,164.810 136.852 C 164.810 136.473,165.009 136.202,165.252 136.251 C 165.495 136.300,165.699 135.993,165.705 135.569 C 165.711 135.145,165.989 134.496,166.324 134.126 C 166.658 133.757,166.932 133.183,166.932 132.852 C 166.932 132.521,167.171 132.159,167.462 132.047 C 167.754 131.935,167.993 131.535,167.993 131.159 C 167.993 130.782,168.158 130.282,168.359 130.047 C 168.560 129.812,168.969 129.302,169.269 128.912 C 169.569 128.523,169.698 128.429,169.556 128.702 C 169.391 129.020,169.439 129.112,169.691 128.956 C 169.907 128.822,170.006 128.510,169.911 128.262 C 169.816 128.013,170.061 127.437,170.457 126.981 C 170.852 126.525,171.176 125.858,171.176 125.498 C 171.176 125.065,171.444 124.836,171.972 124.817 C 172.409 124.802,172.577 124.712,172.344 124.617 C 171.868 124.424,172.458 122.723,173.001 122.723 C 173.164 122.723,173.298 122.405,173.298 122.016 C 173.298 121.627,173.442 121.309,173.617 121.309 C 173.793 121.309,174.103 120.831,174.306 120.248 C 174.509 119.664,174.833 119.187,175.024 119.187 C 175.216 119.187,175.482 118.841,175.616 118.418 C 175.750 117.995,176.003 117.478,176.177 117.269 C 177.631 115.521,177.896 115.135,177.896 114.755 C 177.896 114.517,178.134 114.124,178.426 113.882 C 178.718 113.639,178.957 113.063,178.957 112.600 C 178.957 112.075,179.163 111.760,179.508 111.760 C 179.811 111.760,179.966 111.608,179.852 111.424 C 179.738 111.239,179.967 110.915,180.361 110.704 C 180.784 110.478,181.079 109.962,181.079 109.448 C 181.079 108.909,181.281 108.576,181.609 108.576 C 181.964 108.576,182.140 108.222,182.140 107.504 C 182.140 106.878,182.360 106.348,182.670 106.229 C 182.962 106.117,183.201 105.682,183.201 105.263 C 183.201 104.844,183.678 104.107,184.262 103.625 C 184.877 103.117,185.323 102.408,185.323 101.938 C 185.323 101.492,185.561 101.036,185.853 100.924 C 186.165 100.804,186.384 100.274,186.384 99.638 C 186.384 99.043,186.489 98.661,186.617 98.789 C 186.746 98.918,187.075 98.703,187.349 98.312 C 187.623 97.921,187.961 97.672,188.101 97.758 C 188.241 97.845,188.389 97.519,188.429 97.034 C 188.469 96.548,188.741 95.912,189.034 95.619 C 189.327 95.326,189.585 94.660,189.608 94.139 C 189.634 93.540,189.708 93.420,189.811 93.811 C 189.900 94.151,190.199 94.430,190.477 94.430 C 190.798 94.430,190.981 94.803,190.981 95.453 C 190.981 96.036,191.210 96.564,191.512 96.680 C 191.804 96.792,192.042 97.171,192.042 97.523 C 192.042 97.875,192.520 98.685,193.103 99.324 C 193.687 99.963,194.164 100.777,194.164 101.133 C 194.164 101.490,194.403 101.873,194.695 101.985 C 195.005 102.104,195.225 102.634,195.225 103.260 C 195.225 103.850,195.385 104.332,195.579 104.332 C 196.223 104.332,197.355 105.742,197.429 106.636 C 197.469 107.120,197.686 107.515,197.911 107.515 C 198.136 107.515,198.416 107.993,198.532 108.576 C 198.654 109.187,198.969 109.637,199.273 109.637 C 199.597 109.637,199.722 109.842,199.597 110.168 C 199.468 110.504,199.602 110.698,199.962 110.698 C 200.456 110.698,200.733 111.541,200.572 112.555 C 200.549 112.701,200.769 112.821,201.061 112.821 C 201.382 112.821,201.592 113.148,201.592 113.650 C 201.592 114.106,201.908 114.765,202.294 115.115 C 202.681 115.465,203.190 116.285,203.426 116.938 C 203.662 117.591,203.991 118.126,204.157 118.126 C 204.322 118.126,204.620 118.590,204.818 119.158 C 205.016 119.726,205.405 120.278,205.683 120.385 C 205.962 120.492,206.189 120.902,206.189 121.297 C 206.189 121.693,206.394 122.016,206.644 122.016 C 206.895 122.016,207.131 122.294,207.170 122.635 C 207.337 124.116,207.547 124.663,207.916 124.580 C 208.275 124.500,208.462 124.953,208.353 125.641 C 208.330 125.787,208.501 125.866,208.732 125.818 C 208.964 125.769,209.216 126.048,209.293 126.437 C 209.369 126.826,209.631 127.303,209.874 127.498 C 210.117 127.692,210.427 128.296,210.562 128.839 C 210.713 129.444,210.962 129.730,211.206 129.580 C 211.439 129.435,211.506 129.492,211.366 129.718 C 211.236 129.929,211.293 130.203,211.494 130.327 C 211.695 130.451,211.768 130.701,211.656 130.882 C 211.544 131.063,211.701 131.211,212.004 131.211 C 212.307 131.211,212.575 131.450,212.599 131.742 C 212.702 132.971,212.787 133.152,213.217 133.059 C 213.465 133.006,213.575 133.114,213.460 133.300 C 213.345 133.486,213.391 133.725,213.563 133.831 C 213.735 133.937,213.798 134.425,213.704 134.916 C 213.589 135.521,213.691 135.809,214.020 135.809 C 214.677 135.809,215.581 137.214,214.946 137.246 C 214.701 137.258,214.869 137.416,215.319 137.597 C 215.769 137.777,216.038 138.087,215.915 138.284 C 215.793 138.482,215.942 138.739,216.246 138.856 C 216.550 138.972,216.799 139.374,216.799 139.748 C 216.799 140.123,217.028 140.517,217.308 140.624 C 217.588 140.732,217.919 141.285,218.044 141.854 C 218.169 142.423,218.418 142.798,218.596 142.688 C 218.775 142.577,218.921 142.899,218.921 143.403 C 218.921 143.907,219.146 144.405,219.420 144.511 C 219.694 144.616,220.015 145.088,220.134 145.561 C 220.252 146.033,220.506 146.419,220.696 146.419 C 220.887 146.419,221.043 146.806,221.043 147.279 C 221.043 147.839,221.299 148.221,221.776 148.372 C 222.223 148.514,222.433 148.803,222.315 149.112 C 222.208 149.390,222.409 149.906,222.761 150.259 C 223.592 151.089,223.587 152.078,222.753 152.078 C 222.323 152.078,222.104 152.337,222.104 152.846 C 222.104 153.928,220.954 156.302,220.424 156.313 C 220.181 156.318,219.982 156.561,219.982 156.852 C 219.982 157.144,219.757 157.383,219.483 157.383 C 219.126 157.383,219.031 157.687,219.150 158.444 C 219.307 159.437,219.067 159.695,218.126 159.547 C 217.980 159.524,217.860 160.071,217.860 160.764 C 217.860 161.456,217.718 161.934,217.544 161.827 C 217.176 161.600,216.799 162.428,216.799 163.462 C 216.799 163.942,216.630 164.113,216.287 163.982 C 215.956 163.854,215.840 163.955,215.959 164.265 C 216.066 164.544,215.836 164.844,215.410 164.979 C 214.897 165.142,214.677 165.510,214.677 166.211 C 214.677 166.773,214.445 167.299,214.147 167.413 C 213.855 167.525,213.616 167.963,213.616 168.386 C 213.616 168.808,213.139 169.610,212.555 170.168 C 211.972 170.726,211.494 171.482,211.494 171.849 C 211.494 172.215,211.256 172.607,210.964 172.719 C 210.672 172.830,210.433 173.308,210.433 173.780 C 210.433 174.251,210.206 174.724,209.928 174.831 C 209.650 174.937,209.372 175.472,209.309 176.018 C 209.245 176.581,209.004 176.973,208.753 176.923 C 208.510 176.874,208.311 177.148,208.311 177.531 C 208.311 178.004,208.142 178.162,207.781 178.024 C 207.379 177.869,207.250 178.089,207.250 178.930 C 207.250 179.590,207.035 180.122,206.720 180.243 C 206.428 180.355,206.189 180.793,206.189 181.215 C 206.189 181.895,204.815 183.507,204.460 183.243 C 204.203 183.051,203.724 184.083,203.719 184.843 C 203.716 185.260,203.475 185.692,203.183 185.804 C 202.891 185.916,202.653 186.416,202.653 186.914 C 202.653 187.413,202.414 187.912,202.122 188.024 C 201.830 188.136,201.592 188.529,201.592 188.897 C 201.592 189.604,200.423 190.981,199.823 190.981 C 199.629 190.981,199.469 191.464,199.469 192.054 C 199.469 192.680,199.249 193.210,198.939 193.329 C 198.647 193.441,198.408 193.919,198.408 194.390 C 198.408 194.862,198.170 195.339,197.878 195.451 C 197.586 195.563,197.347 195.877,197.347 196.147 C 197.347 196.418,197.109 196.640,196.817 196.640 C 196.468 196.640,196.286 196.990,196.286 197.663 C 196.286 198.247,196.058 198.774,195.756 198.890 C 195.464 199.002,195.225 199.496,195.225 199.989 C 195.225 200.549,195.027 200.884,194.695 200.884 C 194.337 200.884,194.164 201.242,194.164 201.983 C 194.164 202.811,194.035 203.032,193.638 202.880 C 193.349 202.769,193.129 202.792,193.150 202.930 C 193.250 203.604,193.071 204.089,192.787 203.913 C 192.425 203.690,192.042 204.510,192.042 205.511 C 192.042 205.884,191.804 206.189,191.512 206.189 C 191.158 206.189,190.981 206.543,190.981 207.250 C 190.981 207.958,190.805 208.311,190.451 208.311 C 190.159 208.311,189.920 208.531,189.920 208.800 C 189.920 209.070,189.612 209.370,189.236 209.469 C 188.727 209.602,188.605 209.851,188.758 210.439 C 188.897 210.967,188.771 211.339,188.382 211.557 C 188.061 211.736,187.798 212.235,187.798 212.665 C 187.798 213.094,187.485 213.642,187.101 213.882 C 186.678 214.146,186.487 214.535,186.616 214.871 C 186.826 215.418,185.685 216.799,185.022 216.799 C 184.652 216.799,184.262 217.644,184.262 218.445 C 184.262 218.735,184.023 219.211,183.731 219.502 C 183.439 219.794,183.201 220.340,183.201 220.715 C 183.201 221.097,182.958 221.397,182.649 221.397 C 182.346 221.397,182.179 221.528,182.278 221.688 C 182.376 221.847,182.147 222.244,181.768 222.568 C 181.389 222.893,181.079 223.461,181.079 223.831 C 181.079 224.202,180.840 224.596,180.548 224.708 C 180.256 224.820,180.018 225.314,180.018 225.807 C 180.018 226.299,179.814 226.702,179.564 226.702 C 179.315 226.702,179.075 227.136,179.031 227.666 C 178.984 228.231,178.513 229.004,177.893 229.534 C 177.311 230.030,176.835 230.773,176.835 231.184 C 176.835 231.595,176.596 232.023,176.304 232.135 C 175.996 232.253,175.774 232.783,175.774 233.400 C 175.774 234.210,175.645 234.411,175.229 234.251 C 174.929 234.136,174.709 234.181,174.740 234.351 C 174.878 235.105,174.673 235.544,174.182 235.544 C 173.828 235.544,173.652 235.897,173.652 236.605 C 173.652 237.312,173.475 237.666,173.121 237.666 C 172.767 237.666,172.591 238.019,172.591 238.727 C 172.591 239.434,172.414 239.788,172.060 239.788 C 171.725 239.788,171.530 240.125,171.530 240.702 C 171.530 241.297,171.111 241.987,170.332 242.676 C 169.515 243.400,169.192 243.951,169.313 244.415 C 169.434 244.877,169.308 245.093,168.918 245.093 C 168.519 245.093,168.347 245.412,168.347 246.154 C 168.347 247.102,168.046 247.391,167.197 247.257 C 167.051 247.234,166.932 247.385,166.932 247.594 C 166.932 247.802,166.693 248.211,166.401 248.503 C 166.110 248.795,165.871 249.346,165.871 249.727 C 165.871 250.108,165.632 250.512,165.340 250.624 C 165.049 250.736,164.810 251.189,164.810 251.630 C 164.810 252.072,164.581 252.624,164.300 252.856 C 164.020 253.089,163.871 253.489,163.970 253.745 C 164.154 254.225,162.565 256.057,161.964 256.057 C 161.779 256.057,161.627 256.466,161.627 256.966 C 161.627 257.466,161.388 258.114,161.096 258.406 C 160.805 258.698,160.566 259.243,160.566 259.619 C 160.566 259.994,160.327 260.301,160.035 260.301 C 159.744 260.301,159.505 260.522,159.505 260.793 C 159.505 261.064,159.266 261.378,158.974 261.490 C 158.683 261.601,158.444 262.028,158.444 262.437 C 158.444 262.846,158.205 263.419,157.913 263.711 C 157.622 264.003,157.383 264.541,157.383 264.906 C 157.383 265.271,157.159 265.698,156.886 265.853 C 156.613 266.009,156.331 266.534,156.259 267.020 C 156.187 267.507,155.933 267.865,155.695 267.816 C 155.456 267.767,155.261 268.046,155.261 268.435 C 155.261 268.828,155.025 269.142,154.730 269.142 C 154.378 269.142,154.200 269.495,154.200 270.192 C 154.200 270.900,154.052 271.186,153.747 271.068 C 153.461 270.959,153.267 271.230,153.219 271.808 C 153.176 272.323,152.680 273.111,152.080 273.616 C 151.468 274.130,151.017 274.854,151.017 275.320 C 151.017 276.122,150.239 277.089,149.882 276.731 C 149.779 276.629,149.770 276.934,149.861 277.410 C 149.981 278.038,149.818 278.387,149.267 278.682 C 148.743 278.962,148.573 279.296,148.719 279.756 C 148.941 280.456,148.087 281.566,147.008 281.980 C 146.680 282.106,146.433 282.332,146.458 282.484 C 146.599 283.343,146.353 283.996,145.889 283.996 C 145.557 283.996,145.358 284.332,145.358 284.893 C 145.358 285.437,144.907 286.229,144.209 286.912 C 143.576 287.530,143.099 288.082,143.148 288.138 C 143.516 288.564,143.158 289.701,142.710 289.529 C 142.420 289.418,142.200 289.441,142.221 289.579 C 142.386 290.688,142.101 291.777,141.645 291.777 C 141.291 291.777,141.114 292.131,141.114 292.838 C 141.114 293.546,140.937 293.899,140.584 293.899 C 140.292 293.899,140.053 294.121,140.053 294.392 C 140.053 294.663,139.814 294.976,139.523 295.088 C 139.231 295.200,138.992 295.695,138.992 296.187 C 138.992 296.747,138.793 297.082,138.462 297.082 C 138.108 297.082,137.931 297.436,137.931 298.143 C 137.931 298.851,137.754 299.204,137.401 299.204 C 137.109 299.204,136.870 299.443,136.870 299.735 C 136.870 300.027,136.631 300.265,136.340 300.265 C 135.990 300.265,135.809 300.615,135.809 301.288 C 135.809 301.872,135.581 302.399,135.279 302.515 C 134.987 302.627,134.748 303.042,134.748 303.437 C 134.748 304.183,133.598 305.570,132.980 305.570 C 132.785 305.570,132.626 306.127,132.626 306.808 C 132.626 307.581,132.467 308.013,132.204 307.958 C 131.971 307.909,131.687 308.347,131.572 308.930 C 131.443 309.591,131.157 309.976,130.815 309.952 C 130.422 309.923,130.313 310.151,130.429 310.758 C 130.550 311.390,130.259 311.926,129.280 312.877 C 128.406 313.726,128.027 314.370,128.143 314.811 C 128.298 315.405,127.999 315.636,127.233 315.515 C 127.087 315.492,126.967 315.869,126.967 316.353 C 126.967 317.326,126.003 318.656,125.297 318.656 C 125.031 318.656,124.845 319.092,124.845 319.717 C 124.845 320.363,124.662 320.778,124.376 320.778 C 124.056 320.778,123.956 321.115,124.062 321.839 C 124.177 322.617,124.076 322.900,123.686 322.900 C 123.393 322.900,123.048 323.320,122.920 323.833 C 122.791 324.346,122.216 325.177,121.643 325.680 C 121.055 326.196,120.601 326.950,120.601 327.411 C 120.601 327.860,120.363 328.319,120.071 328.431 C 119.768 328.547,119.540 329.074,119.540 329.658 C 119.540 330.220,119.360 330.681,119.140 330.681 C 118.498 330.681,117.418 332.133,117.418 332.996 C 117.418 333.432,117.179 333.880,116.888 333.992 C 116.596 334.104,116.357 334.598,116.357 335.091 C 116.357 335.651,116.159 335.986,115.827 335.986 C 115.487 335.986,115.291 336.336,115.281 336.958 C 115.271 337.593,114.903 338.233,114.220 338.799 C 113.645 339.276,113.174 339.993,113.174 340.393 C 113.174 340.793,112.869 341.311,112.496 341.544 C 112.073 341.809,111.884 342.221,111.994 342.642 C 112.119 343.119,111.946 343.374,111.399 343.517 C 110.974 343.628,110.721 343.871,110.836 344.056 C 110.950 344.242,110.723 344.477,110.331 344.580 C 109.938 344.683,109.641 344.900,109.669 345.062 C 109.817 345.901,109.597 346.966,109.313 346.791 C 109.134 346.680,108.883 347.069,108.754 347.654 C 108.625 348.239,108.381 348.718,108.211 348.718 C 108.040 348.718,107.798 349.269,107.671 349.943 C 107.545 350.617,107.259 351.135,107.036 351.093 C 106.814 351.051,106.647 351.216,106.667 351.459 C 106.686 351.702,106.726 352.299,106.755 352.785 L 106.808 353.669 133.687 353.669 C 151.370 353.669,160.566 353.548,160.566 353.316 C 160.566 353.081,195.756 352.962,265.429 352.962 C 358.405 352.962,370.292 352.902,370.292 352.431 C 370.292 351.968,372.178 351.901,385.146 351.901 L 400.000 351.901 400.000 351.146 C 400.000 350.730,399.605 350.025,399.123 349.578 C 398.619 349.111,398.211 348.301,398.163 347.672 C 398.108 346.948,397.926 346.637,397.625 346.753 C 397.324 346.868,397.171 346.606,397.171 345.977 C 397.171 345.358,396.801 344.710,396.112 344.123 C 395.492 343.593,395.021 342.820,394.974 342.255 C 394.930 341.725,394.690 341.291,394.441 341.291 C 394.192 341.291,393.988 340.888,393.988 340.396 C 393.988 339.903,393.749 339.409,393.457 339.297 C 393.165 339.185,392.927 338.872,392.927 338.601 C 392.927 338.330,392.688 338.108,392.396 338.108 C 392.064 338.108,391.866 337.773,391.866 337.213 C 391.866 336.720,391.627 336.226,391.335 336.114 C 391.043 336.002,390.805 335.524,390.805 335.053 C 390.805 334.581,390.566 334.104,390.274 333.992 C 389.982 333.880,389.744 333.500,389.744 333.148 C 389.744 332.157,389.352 331.370,388.975 331.603 C 388.788 331.718,388.548 331.480,388.442 331.074 C 388.335 330.668,388.125 330.411,387.974 330.505 C 387.823 330.598,387.597 330.131,387.472 329.466 C 387.348 328.801,387.084 328.203,386.887 328.137 C 386.690 328.072,386.501 327.649,386.467 327.198 C 386.433 326.748,386.118 326.225,385.766 326.036 C 385.414 325.848,385.222 325.539,385.339 325.349 C 385.456 325.160,385.421 325.027,385.261 325.055 C 384.427 325.200,384.085 324.938,384.085 324.156 C 384.085 323.679,383.824 323.143,383.504 322.964 C 383.110 322.743,382.981 322.341,383.102 321.709 C 383.223 321.072,383.127 320.778,382.798 320.778 C 382.013 320.778,380.902 319.431,380.902 318.479 C 380.902 317.929,380.701 317.595,380.371 317.595 C 380.018 317.595,379.841 317.241,379.841 316.534 C 379.841 315.950,379.682 315.473,379.487 315.473 C 378.869 315.473,377.719 314.086,377.719 313.340 C 377.719 312.945,377.480 312.530,377.188 312.418 C 376.862 312.293,376.658 311.756,376.658 311.025 C 376.658 310.114,376.534 309.884,376.127 310.040 C 375.801 310.165,375.597 310.039,375.597 309.713 C 375.597 309.421,375.358 309.091,375.066 308.979 C 374.751 308.858,374.536 308.326,374.536 307.666 C 374.536 306.824,374.407 306.605,374.005 306.759 C 373.511 306.949,373.226 305.860,373.462 304.686 C 373.502 304.492,373.416 304.450,373.272 304.595 C 372.927 304.939,372.009 304.170,372.267 303.753 C 372.377 303.576,372.256 303.474,371.998 303.528 C 371.716 303.586,371.484 303.229,371.416 302.632 C 371.353 302.085,371.075 301.551,370.797 301.444 C 370.519 301.338,370.292 300.955,370.292 300.593 C 370.292 300.232,369.814 299.448,369.231 298.851 C 368.647 298.254,368.170 297.447,368.170 297.059 C 368.170 296.670,367.931 296.261,367.639 296.149 C 367.347 296.037,367.109 295.570,367.109 295.112 C 367.109 294.640,366.802 294.113,366.401 293.899 C 366.012 293.691,365.694 293.288,365.694 293.003 C 365.694 292.718,365.499 292.524,365.260 292.573 C 365.022 292.622,364.768 292.270,364.696 291.791 C 364.623 291.312,364.327 290.747,364.037 290.535 C 363.746 290.323,363.563 289.912,363.629 289.623 C 363.695 289.334,363.232 288.592,362.599 287.974 C 361.901 287.290,361.450 286.498,361.450 285.954 C 361.450 285.434,361.268 285.095,361.016 285.146 C 360.778 285.195,360.525 284.836,360.455 284.350 C 360.385 283.864,359.864 283.037,359.298 282.513 C 358.731 281.989,358.267 281.241,358.267 280.851 C 358.267 280.461,358.042 280.014,357.767 279.858 C 357.492 279.703,357.214 279.098,357.148 278.515 C 357.083 277.931,356.910 277.493,356.764 277.542 C 356.289 277.700,355.084 276.234,355.084 275.497 C 355.084 275.102,354.845 274.687,354.553 274.575 C 354.262 274.463,354.023 273.992,354.023 273.528 C 354.023 273.053,353.561 272.243,352.962 271.671 C 352.378 271.114,351.901 270.415,351.901 270.120 C 351.901 269.824,351.662 269.385,351.370 269.142 C 351.079 268.900,350.835 268.443,350.829 268.126 C 350.816 267.456,349.279 265.606,348.735 265.606 C 348.531 265.606,348.364 265.141,348.364 264.574 C 348.364 264.007,348.190 263.485,347.978 263.414 C 347.766 263.343,347.567 262.852,347.536 262.324 C 347.505 261.795,347.281 261.362,347.038 261.362 C 346.795 261.362,346.596 261.213,346.596 261.032 C 346.596 260.850,346.262 260.596,345.854 260.466 C 345.303 260.292,345.153 260.015,345.273 259.389 C 345.387 258.791,345.244 258.488,344.777 258.339 C 344.383 258.214,344.120 257.799,344.120 257.301 C 344.120 256.836,343.653 256.029,343.059 255.469 C 342.476 254.918,341.998 254.104,341.998 253.659 C 341.998 253.215,341.760 252.760,341.468 252.648 C 341.165 252.532,340.937 252.004,340.937 251.421 C 340.937 250.858,340.778 250.398,340.584 250.398 C 339.901 250.398,338.815 248.974,338.815 248.078 C 338.815 247.580,338.667 247.265,338.486 247.377 C 338.059 247.640,337.770 247.153,337.676 246.009 C 337.634 245.505,337.396 245.093,337.147 245.093 C 336.879 245.093,336.693 244.659,336.693 244.032 C 336.693 243.448,336.534 242.971,336.340 242.971 C 335.698 242.971,334.647 241.647,334.402 240.528 C 334.269 239.923,334.014 239.518,333.835 239.629 C 333.546 239.807,333.369 239.019,333.415 237.758 C 333.423 237.517,333.285 237.410,333.107 237.520 C 332.679 237.784,331.415 236.247,331.400 235.444 C 331.393 235.098,331.165 234.729,330.892 234.624 C 330.620 234.519,330.295 233.890,330.170 233.225 C 330.045 232.561,329.758 232.055,329.532 232.101 C 329.306 232.146,329.107 231.945,329.089 231.653 C 329.072 231.362,328.865 231.163,328.631 231.211 C 328.372 231.265,328.205 230.872,328.205 230.206 C 328.205 229.409,328.013 229.061,327.498 228.927 C 327.037 228.806,326.790 228.444,326.790 227.888 C 326.790 227.418,326.553 226.942,326.262 226.831 C 325.971 226.719,325.828 226.475,325.944 226.288 C 326.060 226.100,325.820 225.860,325.411 225.753 C 324.873 225.612,324.668 225.277,324.668 224.539 C 324.668 223.868,324.487 223.519,324.138 223.519 C 323.784 223.519,323.607 223.165,323.607 222.458 C 323.607 221.790,323.426 221.397,323.118 221.397 C 322.849 221.397,322.541 221.063,322.435 220.654 C 322.328 220.245,322.071 220.016,321.863 220.144 C 321.626 220.291,321.485 219.969,321.485 219.285 C 321.485 218.639,321.268 218.108,320.955 217.988 C 320.663 217.876,320.424 217.404,320.424 216.938 C 320.424 216.473,320.251 216.092,320.039 216.092 C 319.436 216.092,318.327 214.582,318.314 213.743 C 318.308 213.326,318.064 212.893,317.772 212.781 C 317.480 212.669,317.241 212.290,317.241 211.938 C 317.241 211.586,316.764 210.775,316.180 210.137 C 315.597 209.498,315.119 208.683,315.119 208.327 C 315.119 207.971,314.881 207.588,314.589 207.476 C 314.297 207.364,314.058 206.974,314.058 206.609 C 314.058 205.871,312.651 204.067,312.075 204.067 C 311.865 204.067,311.773 203.608,311.861 203.006 C 311.979 202.201,311.879 201.945,311.446 201.945 C 311.118 201.945,310.875 201.655,310.875 201.263 C 310.875 200.888,310.667 200.371,310.413 200.114 C 310.159 199.857,309.846 199.368,309.717 199.027 C 309.588 198.687,309.230 198.408,308.920 198.408 C 308.499 198.408,308.397 198.153,308.517 197.393 C 308.640 196.612,308.543 196.388,308.097 196.421 C 307.730 196.448,307.471 196.137,307.393 195.579 C 307.326 195.093,307.047 194.568,306.774 194.412 C 306.501 194.257,306.278 193.898,306.278 193.616 C 306.278 193.334,306.039 193.103,305.747 193.103 C 305.393 193.103,305.217 192.750,305.217 192.042 C 305.217 191.392,305.049 191.016,304.783 191.070 C 304.544 191.118,304.292 190.760,304.222 190.274 C 304.152 189.788,303.631 188.961,303.064 188.437 C 302.497 187.913,302.034 187.152,302.034 186.746 C 302.034 186.340,301.795 185.916,301.503 185.804 C 301.211 185.692,300.973 185.312,300.973 184.960 C 300.973 183.993,300.585 183.180,300.228 183.400 C 300.054 183.508,299.912 183.348,299.912 183.045 C 299.912 182.741,299.673 182.493,299.381 182.493 C 299.032 182.493,298.851 182.144,298.851 181.470 C 298.851 180.887,298.622 180.359,298.320 180.243 C 298.010 180.124,297.790 179.595,297.790 178.968 C 297.790 178.378,297.630 177.896,297.436 177.896 C 296.846 177.896,295.784 176.641,295.535 175.648 C 295.406 175.134,295.144 174.713,294.953 174.713 C 294.763 174.713,294.607 174.392,294.607 174.000 C 294.607 173.609,294.121 172.853,293.528 172.320 C 292.935 171.788,292.424 170.995,292.392 170.557 C 292.360 170.119,292.035 169.666,291.670 169.550 C 291.241 169.414,291.065 169.111,291.173 168.696 C 291.282 168.282,290.908 167.632,290.126 166.874 C 289.328 166.100,288.970 165.470,289.083 165.037 C 289.199 164.594,289.032 164.319,288.571 164.199 C 288.066 164.067,287.887 163.709,287.887 162.835 C 287.887 161.926,287.763 161.697,287.356 161.853 C 287.018 161.983,286.826 161.847,286.826 161.477 C 286.826 161.158,286.587 160.806,286.295 160.694 C 285.993 160.578,285.765 160.050,285.765 159.467 C 285.765 158.793,285.584 158.444,285.234 158.444 C 284.911 158.444,284.704 158.114,284.704 157.598 C 284.704 157.132,284.465 156.660,284.173 156.548 C 283.863 156.429,283.643 155.899,283.643 155.272 C 283.643 154.682,283.484 154.200,283.289 154.200 C 282.671 154.200,281.521 152.812,281.521 152.067 C 281.521 151.672,281.282 151.257,280.990 151.145 C 280.698 151.033,280.460 150.593,280.460 150.167 C 280.460 149.740,279.990 149.003,279.414 148.525 C 278.838 148.047,278.361 147.318,278.353 146.904 C 278.344 146.491,278.099 145.954,277.807 145.712 C 277.515 145.470,277.277 144.814,277.277 144.254 C 277.277 143.694,277.118 143.236,276.923 143.236 C 276.337 143.236,275.157 141.868,275.031 141.042 C 274.966 140.616,274.729 140.206,274.503 140.131 C 274.278 140.056,274.094 139.609,274.094 139.139 C 274.094 138.669,273.941 138.285,273.754 138.285 C 273.152 138.285,272.056 136.851,271.843 135.785 C 271.715 135.143,271.414 134.748,271.055 134.748 C 270.645 134.748,270.530 134.536,270.663 134.025 C 270.788 133.551,270.620 133.158,270.174 132.879 C 269.801 132.646,269.496 132.255,269.496 132.010 C 269.496 131.765,269.257 131.565,268.966 131.565 C 268.612 131.565,268.435 131.211,268.435 130.504 C 268.435 129.763,268.263 129.443,267.864 129.443 C 267.431 129.443,267.331 129.187,267.449 128.382 C 267.574 127.533,267.476 127.321,266.959 127.321 C 266.604 127.321,266.313 127.082,266.313 126.790 C 266.313 126.499,266.074 126.260,265.782 126.260 C 265.433 126.260,265.252 125.910,265.252 125.237 C 265.252 124.654,265.024 124.126,264.721 124.010 C 264.430 123.898,264.191 123.439,264.191 122.990 C 264.191 122.536,263.746 121.783,263.189 121.295 C 262.639 120.811,262.078 119.980,261.945 119.447 C 261.811 118.915,261.546 118.479,261.355 118.479 C 261.164 118.479,261.008 118.076,261.008 117.584 C 261.008 117.092,260.769 116.597,260.477 116.485 C 260.186 116.373,259.947 116.060,259.947 115.789 C 259.947 115.518,259.708 115.296,259.416 115.296 C 259.088 115.296,258.886 114.964,258.886 114.424 C 258.886 113.911,258.591 113.395,258.169 113.169 C 257.773 112.957,257.561 112.608,257.696 112.389 C 257.856 112.131,257.736 112.072,257.352 112.219 C 256.884 112.399,256.764 112.228,256.764 111.384 C 256.764 110.767,256.542 110.237,256.233 110.119 C 255.942 110.007,255.703 109.614,255.703 109.246 C 255.703 108.878,255.534 108.576,255.328 108.576 C 255.122 108.576,255.042 108.434,255.150 108.260 C 255.257 108.086,255.097 107.848,254.794 107.732 C 254.491 107.616,254.343 107.359,254.465 107.162 C 254.587 106.965,254.438 106.708,254.134 106.591 C 253.830 106.474,253.581 106.083,253.581 105.722 C 253.581 105.360,253.250 104.888,252.846 104.671 C 252.425 104.446,252.194 104.063,252.305 103.775 C 252.544 103.150,252.191 102.153,251.813 102.387 C 251.660 102.482,251.433 102.156,251.309 101.663 C 251.186 101.170,250.932 100.861,250.745 100.976 C 250.549 101.098,250.504 100.930,250.639 100.579 C 250.796 100.171,250.738 100.055,250.463 100.225 C 250.177 100.402,250.093 100.139,250.185 99.355 C 250.286 98.487,250.164 98.193,249.649 98.058 C 249.283 97.962,248.983 97.664,248.983 97.395 C 248.983 97.126,248.754 96.905,248.473 96.905 C 248.154 96.905,248.014 96.642,248.098 96.203 C 248.174 95.809,247.958 95.305,247.604 95.054 C 247.259 94.808,246.866 94.162,246.731 93.619 C 246.597 93.077,246.332 92.728,246.143 92.845 C 245.950 92.964,245.800 92.584,245.800 91.975 C 245.800 91.380,245.662 90.893,245.492 90.893 C 245.323 90.893,244.805 90.337,244.343 89.658 C 243.880 88.978,243.302 88.421,243.059 88.420 C 242.808 88.418,242.617 87.976,242.617 87.394 C 242.617 86.811,242.389 86.283,242.087 86.167 C 241.795 86.055,241.556 85.585,241.556 85.121 C 241.556 84.602,241.149 83.967,240.495 83.466 C 239.912 83.019,239.434 82.370,239.434 82.024 C 239.434 81.678,239.195 81.156,238.904 80.864 C 238.612 80.572,238.373 80.085,238.373 79.781 C 238.373 79.477,237.896 78.772,237.312 78.214 C 236.657 77.588,236.251 76.843,236.251 76.266 C 236.251 75.671,236.058 75.332,235.721 75.332 C 235.385 75.332,235.190 74.994,235.190 74.414 C 235.190 73.796,234.961 73.437,234.487 73.313 C 234.100 73.212,233.871 72.987,233.979 72.813 C 234.086 72.639,233.943 72.409,233.661 72.300 C 233.378 72.192,233.054 71.636,232.940 71.065 C 232.811 70.422,232.511 70.027,232.152 70.027 C 231.719 70.027,231.615 69.795,231.745 69.118 C 231.866 68.482,231.719 68.085,231.255 67.795 C 230.891 67.567,230.592 67.038,230.592 66.619 C 230.592 66.201,230.352 65.766,230.059 65.653 C 229.765 65.541,229.566 65.252,229.617 65.013 C 229.667 64.773,229.469 64.570,229.178 64.561 C 228.864 64.551,228.601 64.138,228.533 63.551 C 228.471 63.005,228.192 62.470,227.914 62.364 C 227.637 62.257,227.409 61.822,227.409 61.396 C 227.409 60.969,226.940 60.232,226.363 59.754 C 225.681 59.188,225.312 58.548,225.302 57.913 C 225.293 57.291,225.096 56.941,224.757 56.941 C 224.387 56.941,224.226 56.569,224.226 55.714 C 224.226 54.821,224.095 54.538,223.742 54.673 C 223.451 54.785,223.179 54.555,223.059 54.096 C 222.948 53.674,222.691 53.437,222.482 53.566 C 222.253 53.708,222.104 53.451,222.104 52.912 C 222.104 52.424,221.879 51.897,221.605 51.742 C 221.330 51.586,221.051 50.981,220.986 50.398 C 220.920 49.814,220.677 49.373,220.446 49.418 C 220.215 49.463,219.925 49.182,219.802 48.794 C 219.678 48.406,219.430 48.180,219.250 48.292 C 219.069 48.403,218.921 48.107,218.921 47.633 C 218.921 47.159,218.683 46.573,218.391 46.331 C 218.099 46.089,217.860 45.593,217.860 45.229 C 217.860 44.866,217.407 44.129,216.853 43.593 C 216.299 43.056,215.739 42.179,215.608 41.645 C 215.478 41.110,215.228 40.672,215.052 40.672 C 214.877 40.672,214.629 40.195,214.500 39.611 C 214.370 39.015,214.038 38.550,213.744 38.550 C 213.456 38.550,213.326 38.380,213.454 38.172 C 213.583 37.965,213.354 37.708,212.945 37.601 C 212.415 37.462,212.202 37.125,212.202 36.425 C 212.202 35.878,211.966 35.352,211.671 35.239 C 211.379 35.127,211.141 34.742,211.141 34.383 C 211.141 34.024,210.663 33.273,210.080 32.714 C 209.491 32.151,209.019 31.328,209.019 30.869 C 209.019 30.413,208.780 29.948,208.488 29.836 C 208.196 29.724,207.958 29.247,207.958 28.775 C 207.958 28.304,207.719 27.826,207.427 27.714 C 207.135 27.602,206.897 27.289,206.897 27.018 C 206.897 26.747,206.701 26.565,206.463 26.614 C 206.224 26.662,205.974 26.304,205.907 25.818 C 205.840 25.332,205.558 24.757,205.280 24.541 C 205.002 24.325,204.740 23.728,204.698 23.215 C 204.655 22.701,204.416 22.281,204.167 22.281 C 203.918 22.281,203.714 22.042,203.714 21.751 C 203.714 21.459,203.475 21.220,203.183 21.220 C 202.851 21.220,202.653 20.885,202.653 20.325 C 202.653 19.832,202.414 19.338,202.122 19.226 C 201.796 19.101,201.592 18.564,201.592 17.834 C 201.592 16.922,201.468 16.692,201.061 16.848 C 200.735 16.973,200.531 16.848,200.531 16.521 C 200.531 16.230,200.292 15.899,200.000 15.787 C 199.708 15.675,199.469 15.313,199.469 14.981 C 199.469 14.650,199.245 14.128,198.971 13.821 C 198.697 13.514,198.418 12.944,198.352 12.555 C 198.286 12.166,197.701 11.455,197.053 10.975 C 196.067 10.245,195.908 9.939,196.076 9.101 C 196.194 8.507,196.138 8.184,195.938 8.308 C 195.752 8.423,195.365 7.953,195.077 7.264 C 194.790 6.576,194.387 6.012,194.183 6.012 C 193.978 6.012,193.811 5.774,193.811 5.482 C 193.811 5.190,193.612 4.991,193.369 5.040 C 193.096 5.094,192.922 4.723,192.914 4.070 C 192.905 3.358,192.702 2.973,192.295 2.894 C 191.941 2.826,191.689 2.453,191.689 1.998 C 191.689 0.903,190.488 -0.000,189.032 -0.000 C 187.952 -0.000,187.798 0.110,187.798 0.884 M253.581 200.572 C 253.581 201.242,253.763 201.592,254.111 201.592 C 254.427 201.592,254.642 201.916,254.642 202.391 C 254.642 202.849,255.095 203.565,255.703 204.067 C 256.286 204.549,256.764 205.212,256.764 205.541 C 256.764 205.870,256.990 206.365,257.266 206.640 C 257.542 206.916,257.820 207.604,257.885 208.169 C 257.949 208.733,258.132 209.147,258.290 209.089 C 258.680 208.945,259.947 210.592,259.947 211.241 C 259.947 211.527,260.166 211.944,260.435 212.166 C 260.703 212.389,261.013 213.005,261.123 213.536 C 261.235 214.075,261.799 214.812,262.403 215.208 C 263.083 215.654,263.482 216.214,263.483 216.722 C 263.483 217.166,263.722 217.620,264.014 217.732 C 264.306 217.844,264.550 218.277,264.556 218.694 C 264.569 219.533,265.678 221.043,266.281 221.043 C 266.493 221.043,266.667 221.521,266.667 222.104 C 266.667 222.812,266.844 223.165,267.197 223.165 C 267.525 223.165,267.728 223.498,267.728 224.033 C 267.728 224.892,269.269 226.811,269.651 226.429 C 269.823 226.257,270.004 227.823,269.896 228.546 C 269.875 228.685,270.095 228.708,270.384 228.597 C 270.760 228.453,270.911 228.637,270.911 229.238 C 270.911 229.702,271.388 230.604,271.972 231.243 C 272.555 231.882,273.033 232.792,273.033 233.267 C 273.033 233.797,273.237 234.129,273.563 234.129 C 274.024 234.129,274.296 235.038,274.127 236.012 C 274.099 236.172,274.234 236.206,274.427 236.087 C 274.620 235.968,274.981 236.194,275.228 236.591 C 275.476 236.988,275.896 237.312,276.162 237.312 C 276.503 237.312,276.580 237.576,276.422 238.204 C 276.265 238.829,276.360 239.158,276.738 239.303 C 277.034 239.417,277.277 239.833,277.277 240.227 C 277.277 240.953,278.782 242.617,279.438 242.617 C 279.634 242.617,279.700 242.769,279.586 242.955 C 279.245 243.506,279.779 245.060,280.248 244.880 C 280.537 244.770,280.654 245.068,280.605 245.788 C 280.564 246.378,280.665 246.861,280.830 246.861 C 281.462 246.861,282.935 248.569,282.935 249.300 C 282.935 249.722,283.174 250.158,283.466 250.270 C 283.768 250.386,283.996 250.913,283.996 251.497 C 283.996 252.170,284.178 252.520,284.527 252.520 C 284.819 252.520,285.057 252.759,285.057 253.050 C 285.057 253.342,285.296 253.581,285.588 253.581 C 285.920 253.581,286.118 253.916,286.118 254.476 C 286.118 254.969,286.357 255.463,286.649 255.575 C 286.951 255.691,287.179 256.219,287.179 256.802 C 287.179 257.475,287.361 257.825,287.710 257.825 C 288.002 257.825,288.240 258.064,288.240 258.355 C 288.240 258.647,288.479 258.886,288.771 258.886 C 289.103 258.886,289.302 259.221,289.302 259.781 C 289.302 260.274,289.540 260.768,289.832 260.880 C 290.134 260.996,290.363 261.524,290.363 262.107 C 290.363 262.670,290.522 263.130,290.716 263.130 C 291.334 263.130,292.485 264.517,292.485 265.263 C 292.485 265.658,292.723 266.073,293.015 266.185 C 293.307 266.297,293.546 266.734,293.546 267.156 C 293.546 267.578,294.003 268.424,294.561 269.036 C 295.120 269.647,295.680 270.558,295.806 271.060 C 295.932 271.561,296.191 271.972,296.382 271.972 C 296.572 271.972,296.729 272.353,296.729 272.818 C 296.729 273.284,296.967 273.756,297.259 273.868 C 297.551 273.980,297.790 274.355,297.791 274.702 C 297.792 275.048,298.270 275.840,298.852 276.462 C 299.435 277.083,299.912 277.934,299.912 278.352 C 299.912 278.814,300.189 279.184,300.619 279.296 C 301.080 279.417,301.326 279.779,301.326 280.335 C 301.326 280.805,301.565 281.281,301.857 281.393 C 302.149 281.505,302.387 281.818,302.387 282.089 C 302.387 282.360,302.626 282.582,302.918 282.582 C 303.273 282.582,303.448 282.937,303.448 283.654 C 303.448 284.281,303.669 284.811,303.979 284.930 C 304.271 285.042,304.509 285.490,304.509 285.927 C 304.509 286.392,304.948 287.056,305.570 287.533 C 306.311 288.101,306.631 288.651,306.631 289.354 C 306.631 290.015,306.814 290.363,307.162 290.363 C 307.515 290.363,307.692 290.716,307.692 291.424 C 307.692 292.007,307.851 292.485,308.046 292.485 C 308.664 292.485,309.814 293.872,309.814 294.618 C 309.814 295.013,310.053 295.428,310.345 295.540 C 310.647 295.656,310.875 296.183,310.875 296.766 C 310.875 297.329,311.034 297.790,311.229 297.790 C 311.870 297.790,312.921 299.113,313.166 300.229 C 313.299 300.833,313.554 301.326,313.733 301.326 C 313.912 301.326,314.058 301.650,314.058 302.045 C 314.058 302.440,314.297 302.855,314.589 302.967 C 314.881 303.079,315.119 303.375,315.119 303.625 C 315.119 303.875,315.358 304.172,315.650 304.284 C 315.942 304.395,316.180 304.731,316.180 305.029 C 316.180 305.513,309.541 305.570,253.404 305.570 L 190.628 305.570 190.628 304.498 C 190.628 303.809,190.849 303.335,191.247 303.172 C 191.603 303.025,191.866 302.543,191.866 302.034 C 191.866 301.515,192.048 301.186,192.308 301.238 C 192.551 301.286,192.750 301.008,192.750 300.619 C 192.750 300.226,192.986 299.912,193.280 299.912 C 193.615 299.912,193.811 299.574,193.811 298.994 C 193.811 298.411,194.041 298.017,194.443 297.912 C 194.816 297.814,195.106 297.369,195.151 296.826 C 195.193 296.320,195.704 295.480,196.287 294.959 C 196.870 294.439,197.347 293.737,197.347 293.400 C 197.347 293.063,197.586 292.549,197.878 292.257 C 198.170 291.965,198.408 291.420,198.408 291.045 C 198.408 290.669,198.613 290.363,198.862 290.363 C 199.111 290.363,199.347 289.925,199.386 289.390 C 199.429 288.805,199.883 288.055,200.524 287.507 C 201.199 286.932,201.592 286.263,201.592 285.688 C 201.592 285.189,201.830 284.688,202.122 284.576 C 202.414 284.464,202.653 283.969,202.653 283.477 C 202.653 282.917,202.851 282.582,203.183 282.582 C 203.475 282.582,203.714 282.360,203.714 282.089 C 203.714 281.818,203.952 281.505,204.244 281.393 C 204.536 281.281,204.775 280.803,204.775 280.332 C 204.775 279.860,205.013 279.383,205.305 279.271 C 205.597 279.159,205.836 278.681,205.836 278.210 C 205.836 277.738,206.074 277.261,206.366 277.149 C 206.658 277.037,206.903 276.582,206.912 276.138 C 206.920 275.689,207.390 274.947,207.973 274.464 C 208.548 273.987,209.019 273.269,209.019 272.869 C 209.019 272.469,209.332 271.946,209.716 271.706 C 210.120 271.454,210.328 271.049,210.211 270.744 C 210.088 270.423,210.430 269.863,211.083 269.313 C 211.686 268.806,212.206 267.988,212.268 267.450 C 212.330 266.912,212.573 266.529,212.821 266.578 C 213.265 266.667,213.393 266.285,213.286 265.193 C 213.254 264.869,213.554 264.500,213.953 264.373 C 214.466 264.210,214.677 263.841,214.677 263.106 C 214.677 262.403,214.855 262.069,215.229 262.069 C 215.532 262.069,215.675 261.899,215.547 261.691 C 215.418 261.484,215.614 261.235,215.981 261.139 C 216.394 261.031,216.678 260.607,216.726 260.027 C 216.769 259.511,217.042 258.955,217.332 258.793 C 217.623 258.630,217.860 258.107,217.860 257.631 C 217.860 257.081,218.062 256.764,218.412 256.764 C 218.715 256.764,218.878 256.626,218.774 256.458 C 218.670 256.289,218.899 255.866,219.283 255.519 C 219.668 255.171,219.982 254.587,219.982 254.222 C 219.982 253.857,220.221 253.467,220.513 253.355 C 220.805 253.243,221.043 252.790,221.043 252.349 C 221.043 251.907,221.282 251.347,221.574 251.105 C 221.866 250.863,222.104 250.393,222.104 250.060 C 222.104 249.727,222.577 248.991,223.156 248.423 C 223.734 247.856,224.211 247.108,224.217 246.762 C 224.222 246.415,224.465 246.040,224.757 245.928 C 225.063 245.811,225.287 245.282,225.287 244.680 C 225.287 244.106,225.435 243.728,225.616 243.839 C 225.796 243.951,226.046 243.719,226.172 243.324 C 226.297 242.930,226.530 242.688,226.690 242.787 C 227.025 242.994,227.409 242.151,227.409 241.211 C 227.409 240.859,227.648 240.479,227.940 240.367 C 228.232 240.255,228.470 239.761,228.470 239.268 C 228.470 238.708,228.669 238.373,229.001 238.373 C 229.530 238.373,229.665 238.015,229.555 236.899 C 229.523 236.575,229.825 236.206,230.227 236.078 C 230.628 235.951,230.875 235.715,230.776 235.555 C 230.677 235.395,230.834 235.173,231.125 235.061 C 231.416 234.950,231.653 234.456,231.653 233.963 C 231.653 233.434,231.855 233.068,232.146 233.068 C 232.652 233.068,233.068 232.337,233.068 231.448 C 233.068 230.924,234.289 229.531,234.748 229.531 C 235.018 229.531,235.068 229.357,235.146 228.128 C 235.175 227.663,235.366 227.499,235.721 227.635 C 236.132 227.793,236.251 227.552,236.251 226.563 C 236.251 225.761,236.420 225.287,236.704 225.287 C 236.954 225.287,237.191 224.891,237.231 224.408 C 237.300 223.565,238.425 222.104,239.003 222.104 C 239.155 222.104,239.316 221.672,239.359 221.145 C 239.403 220.617,239.676 220.052,239.967 219.889 C 240.257 219.727,240.495 219.248,240.495 218.827 C 240.495 218.405,240.903 217.709,241.403 217.280 C 241.902 216.851,242.437 216.050,242.592 215.500 C 242.747 214.950,243.055 214.540,243.276 214.589 C 243.507 214.640,243.678 214.222,243.678 213.605 C 243.678 212.978,243.899 212.448,244.209 212.329 C 244.500 212.218,244.739 211.762,244.739 211.317 C 244.739 210.873,244.978 210.417,245.270 210.305 C 245.561 210.193,245.800 209.858,245.800 209.560 C 245.800 209.262,246.039 209.019,246.331 209.019 C 246.680 209.019,246.861 208.669,246.861 207.995 C 246.861 207.412,247.089 206.885,247.392 206.769 C 247.683 206.657,247.922 206.173,247.922 205.694 C 247.922 205.131,248.174 204.742,248.635 204.596 C 249.027 204.472,249.267 204.240,249.169 204.082 C 249.071 203.924,249.314 203.710,249.709 203.606 C 250.272 203.459,250.379 203.230,250.205 202.538 C 250.032 201.848,250.143 201.608,250.722 201.424 C 251.286 201.245,251.411 200.995,251.252 200.361 C 251.097 199.742,251.209 199.498,251.694 199.395 C 252.961 199.124,253.581 199.511,253.581 200.572 " stroke="none" fill="#fcd43c" fill-rule="evenodd"></path><path id="path1" d="" stroke="none" fill="#100d43c" fill-rule="evenodd"></path><path id="path2" d="" stroke="none" fill="#100d43c" fill-rule="evenodd"></path><path id="path3" d="" stroke="none" fill="#100d43c" fill-rule="evenodd"></path><path id="path4" d="" stroke="none" fill="#100d43c" fill-rule="evenodd"></path></g></svg>